<svg width="11" height="10" viewBox="0 0 11 10" fill="none" xmlns="http://www.w3.org/2000/svg">
  <path d="M10.68 8.86L6.06.4a.77.77 0 00-1.34 0L.1 8.86c-.14.26-.13.5.01.76a.75.75 0 00.66.38h9.24a.75.75 0 00.66-.38c.15-.25.15-.5 0-.76zm-4.52-.6a.2.2 0 01-.06.14.18.18 0 01-.13.06H4.8a.18.18 0 01-.13-.06.2.2 0 01-.06-.14V7.12c0-.05.02-.1.06-.14a.18.18 0 01.13-.06h1.16c.05 0 .1.02.13.06a.2.2 0 01.06.14v1.14zm-.01-2.24c0 .04-.03.07-.07.1a.24.24 0 01-.14.03h-1.1a.26.26 0 01-.15-.04c-.04-.02-.06-.05-.06-.1l-.1-2.74c0-.06.02-.1.06-.13.05-.04.1-.06.14-.06h1.32c.05 0 .1.02.15.06.04.03.06.07.06.12l-.11 2.76z" fill="#C23E42"/>
</svg>